# xmcd
#
# Track frame offsets:
#       150
#       15965
#       30797
#       44780
#       62232
#       74575
#       90917
#       106607
#       118955
#       131205
#       147197
#       162440
#
# Disc length: 2403 seconds
#
# Revision: 1
# Processed by: cddbd v1.4PL0 Copyright (c) Steve Scherf et al.
# Submitted via: CD-DA_X-Tractor v0.23
#
DISCID=a109610c
DTITLE=Various Country Artists - 90's Country #1 Hits - Just The Hits
DYEAR=2000
DGENRE=Country
TTITLE0=The Shoes You're Wearing - Clint Black
TTITLE1=Meet Me In The Middle - George Strait
TTITLE2=Love Without End, Amen - George Strait
TTITLE3=Forever Love - Reba Mcentire
TTITLE4=Dallas - Alan Jackson
TTITLE5=Jukebox In My Mind - Alabama
TTITLE6=Should've Been A Cowboy - Toby Keith
TTITLE7=What Part of No - Lorrie Morgan
TTITLE8=It's A Little Too Late
TTITLE9=Your Easy On The Eyes - Mark Chesnutt
TTITLE10=She's Not The Cheatin' Kind - Brooks and Dunn
TTITLE11=I Still Believe In You - Vince Gill
EXTD=
EXTT0=
EXTT1=
EXTT2=
EXTT3=
EXTT4=
EXTT5=
EXTT6=
EXTT7=
EXTT8=
EXTT9=
EXTT10=
EXTT11=
PLAYORDER=
